<?xml version="1.0" encoding="utf-8"?>
<!-- Generator: Adobe Illustrator 18.1.1, SVG Export Plug-In . SVG Version: 6.00 Build 0)  -->
<svg version="1.1" id="Layer_1" xmlns="http://www.w3.org/2000/svg" xmlns:xlink="http://www.w3.org/1999/xlink" x="0px" y="0px"
	 width="671px" height="300px" viewBox="-664 851 671 300" enable-background="new -664 851 671 300" xml:space="preserve">
<g>
	<g>
		<path fill="#E8E8E8" d="M-429.7,1115.2c0.2,1.8,1.7,2.7,3.8,2.7c2,0,3.3-0.8,3.3-2.6c0-2.3-2.2-2.5-4.1-2.9
			c-1.4-0.3-3.4-0.8-3.4-3.1c0-2,1.4-3.2,4-3.2c2.3,0,3.9,0.9,4.3,2.9l-0.8,0.2c-0.3-1.5-1.3-2.4-3.4-2.4s-3.2,0.9-3.2,2.4
			c0,1.8,1.6,2.2,3.4,2.6c1.5,0.3,4.1,0.7,4.1,3.5c0,2.2-1.6,3.3-4.1,3.3c-1.8,0-4.1-0.5-4.5-3.2L-429.7,1115.2z"/>
		<path fill="#E8E8E8" d="M-402.4,1111.8v-4.2l0,0l-4.4,7.9h-0.7l-4.4-8l0,0c0,0,0,3,0,4.3v6.7h-0.8v-12h1l3,5.3
			c1,1.9,1.5,2.8,1.5,2.8l0,0c0,0,0.5-1,1.5-2.9l3-5.3h1v12h-0.8L-402.4,1111.8L-402.4,1111.8z"/>
		<path fill="#E8E8E8" d="M-390.2,1114.6l-1.6,3.8h-0.8l5.2-12h0.8l5.2,12h-0.9l-1.6-3.8H-390.2z M-385.6,1110.6
			c-1-2.3-1.4-3.4-1.4-3.4l0,0c0,0-0.5,1.3-1.5,3.6l-1.3,3.1h5.7L-385.6,1110.6z"/>
		<path fill="#E8E8E8" d="M-368.4,1113.1c-0.6,0-1.1,0-1.4,0h-1.8v5.2h-0.8v-12h3.4c2.8,0,4.5,1.2,4.5,3.4c0,1.9-1.2,3-3.1,3.3
			l3.3,5.4h-0.9L-368.4,1113.1z M-369,1112.5c2.4,0,3.7-0.8,3.7-2.7c0-1.9-1.4-2.6-3.7-2.6h-2.6v5.3L-369,1112.5L-369,1112.5z"/>
		<path fill="#E8E8E8" d="M-351.2,1107.1v11.3h-0.8v-11.3h-4.4v-0.8h9.6v0.8H-351.2z"/>
		<path fill="#E8E8E8" d="M-320.1,1112c1.2,0.1,3,0.9,3,3.1c0,2-1.5,3.3-3.9,3.3h-4.8v-12h4.3c2.1,0,3.5,1.3,3.5,2.9
			C-317.9,1111-318.9,1111.7-320.1,1112L-320.1,1112z M-321.6,1111.7c1.3,0,2.8-0.7,2.8-2.4c0-1.3-1.1-2.2-2.8-2.2h-3.4v4.6H-321.6z
			 M-321,1117.7c1.7,0,3.1-0.9,3.1-2.5c0-1.7-1.5-2.7-3.2-2.7h-3.8v5.2H-321z"/>
		<path fill="#E8E8E8" d="M-298.4,1113.6c0,3.4-1.6,5.1-4.8,5.1s-4.8-1.7-4.8-5.1v-7.2h0.8v7.3c0,2.8,1.2,4.2,4,4.2
			c2.7,0,4-1.4,4-4.2v-7.3h0.8V1113.6z"/>
		<path fill="#E8E8E8" d="M-288.7,1115.2c0.2,1.8,1.7,2.7,3.8,2.7c2,0,3.3-0.8,3.3-2.6c0-2.3-2.2-2.5-4.1-2.9
			c-1.4-0.3-3.4-0.8-3.4-3.1c0-2,1.4-3.2,4-3.2c2.3,0,3.8,0.9,4.3,2.9l-0.8,0.2c-0.3-1.5-1.3-2.4-3.4-2.4s-3.2,0.9-3.2,2.4
			c0,1.8,1.6,2.2,3.4,2.6c1.5,0.3,4.1,0.7,4.1,3.5c0,2.2-1.6,3.3-4.1,3.3c-1.8,0-4.1-0.5-4.5-3.2L-288.7,1115.2z"/>
		<path fill="#E8E8E8" d="M-271.7,1106.4h0.8v12h-0.8V1106.4z"/>
		<path fill="#E8E8E8" d="M-252,1118.4l-7.9-10.8l0,0c0,0,0,1.3,0,2.8v8h-0.8v-12h0.8l7.9,10.7l0,0c0,0,0-1.3,0-2.7v-8h0.8v12H-252z
			"/>
		<path fill="#E8E8E8" d="M-241,1106.4h8v0.8h-7.1v4.6h5.7v0.8h-5.7v5.1h7.2v0.8h-8.1L-241,1106.4L-241,1106.4z"/>
		<path fill="#E8E8E8" d="M-223.7,1115.2c0.2,1.8,1.7,2.7,3.8,2.7c2,0,3.3-0.8,3.3-2.6c0-2.3-2.2-2.5-4.1-2.9
			c-1.4-0.3-3.4-0.8-3.4-3.1c0-2,1.4-3.2,4-3.2c2.3,0,3.8,0.9,4.3,2.9l-0.8,0.2c-0.3-1.5-1.3-2.4-3.4-2.4c-2.1,0-3.2,0.9-3.2,2.4
			c0,1.8,1.6,2.2,3.4,2.6c1.5,0.3,4.1,0.7,4.1,3.5c0,2.2-1.6,3.3-4.1,3.3c-1.8,0-4.1-0.5-4.5-3.2L-223.7,1115.2z"/>
		<path fill="#E8E8E8" d="M-206.9,1115.2c0.2,1.8,1.7,2.7,3.8,2.7c2,0,3.3-0.8,3.3-2.6c0-2.3-2.2-2.5-4.1-2.9
			c-1.4-0.3-3.4-0.8-3.4-3.1c0-2,1.4-3.2,4-3.2c2.3,0,3.8,0.9,4.3,2.9l-0.8,0.2c-0.3-1.5-1.3-2.4-3.4-2.4c-2.1,0-3.2,0.9-3.2,2.4
			c0,1.8,1.6,2.2,3.4,2.6c1.5,0.3,4.1,0.7,4.1,3.5c0,2.2-1.6,3.3-4.1,3.3c-1.8,0-4.1-0.5-4.5-3.2L-206.9,1115.2z"/>
	</g>
</g>
<g>
	<g>
		<g>
			<path opacity="0.8" fill="#EE4266" d="M-474.6,968.8l-42.7,89.4c-4.7,10.4-17.1,15.4-27.5,10.7c-10.4-4.7-15.2-17.4-10.5-27.8
				l42.7-89.4c4.7-10.4,17.3-14.9,27.7-10.2C-474.5,946.1-469.9,958.4-474.6,968.8z"/>
			<linearGradient id="SVGID_1_" gradientUnits="userSpaceOnUse" x1="-471.9048" y1="1005.1147" x2="-387.5623" y2="1005.1147">
				<stop  offset="0" style="stop-color:#3BCEAC;stop-opacity:0.3"/>
				<stop  offset="1" style="stop-color:#3BCEAC"/>
			</linearGradient>
			<path fill="url(#SVGID_1_)" d="M-389.4,968.8l-42.7,89.4c-4.7,10.4-17.1,15.4-27.5,10.7s-15.2-17.4-10.5-27.8l42.7-89.4
				c4.7-10.4,17.3-14.9,27.7-10.2C-389.3,946.1-384.7,958.4-389.4,968.8z"/>
			<path opacity="0.9" fill="#EE4266" d="M-502.6,941.5c10.4-4.7,23-0.2,27.7,10.2l42.7,89.4c4.7,10.4-0.1,23.1-10.5,27.8
				s-22.8-0.3-27.5-10.7l-42.7-89.4C-517.6,958.4-513,946.1-502.6,941.5z"/>
			<path opacity="0.8" fill="#FFD23F" d="M-587.8,941.5c10.4-4.7,23-0.2,27.7,10.2l42.7,89.4c4.7,10.4-0.1,23.1-10.5,27.8
				c-10.4,4.7-22.8-0.3-27.5-10.7l-42.7-89.4C-602.8,958.4-598.2,946.1-587.8,941.5z"/>
		</g>
		<path fill="#E8E8E8" d="M-364.7,1049.4v-89.1c0-11.4,9.3-21,20.7-21s21,9.6,21,21v89.1c0,11.4-9.6,21.5-21,21.5
			S-364.7,1060.8-364.7,1049.4z"/>
		<path fill="#E8E8E8" d="M-178.2,986.7c-3.8-37-34.7-46.7-58.8-46.8c-24.1,0.1-55.1,9.8-58.8,46.8c-1.3,12.9-0.1,66.3-0.1,66.3
			c1.8,9.5,10.6,17.8,20.5,17.8c11.4,0,21.1-8.1,21.1-19.5c0.2-52,0.4-39.8,0.3-48.1c0-15.2,9.3-21.3,17-21.4
			c7.7,0,17.1,6.2,17,21.4c0,8.4,0.2-3.9,0.3,48.1c0,11.4,9.7,19.5,21.1,19.5c9.9,0,18.7-8.3,20.5-17.8
			C-178.1,1052.9-176.8,999.5-178.2,986.7z"/>
		<path fill="#E8E8E8" d="M-150.2,1049.4V902.8c0-11.4,9.3-21,20.7-21s21,9.6,21,21v146.6c0,11.4-9.6,21.5-21,21.5
			S-150.2,1060.8-150.2,1049.4z"/>
		<path fill="#E8E8E8" d="M-364.7,903.5L-364.7,903.5c0-11.4,9.3-21,20.7-21s21,9.6,21,21v0c0,11.4-9.6,21.5-21,21.5
			S-364.7,914.9-364.7,903.5z"/>
		<path opacity="0.9" fill="#EE4266" d="M-131,1006.6l37.9-46.1c2.9-3.9,5.1-6.6,6.5-8.3c1.4-1.7,3.2-3.7,5.6-6
			c2.3-2.3,4.5-3.9,6.6-4.8c2.1-0.9,4.4-1.4,6.8-1.4c6,0,11.3,2.2,15.9,6.6c4.6,4.4,6.9,9.8,6.9,16.2c0,6-14.2,21.1-16.5,24.3
			l-15.3,19.2l12.2,14.5c10.1,12.4,18.8,21.2,18.8,27.7c0,6.3-2.4,11.6-7.3,16c-4.9,4.4-10.4,6.6-16.5,6.6c-1.9,0-3.7-0.2-5.4-0.8
			c-1.7-0.5-3.5-1.4-5.2-2.7c-1.7-1.3-3.2-2.4-4.5-3.5c-1.3-1-2.7-2.7-4.4-4.8s-3-3.7-3.8-4.8c-0.8-1.1-2.2-3-4-5.6s-3-4.2-3.5-5
			L-131,1006.6"/>
	</g>
</g>
</svg>
